<svg viewBox="0 0 65 65" fill="none" xmlns="http://www.w3.org/2000/svg">
<rect width="65" height="65" fill="#1F1E1E"/>
<path d="M42.9999 37.9201V40.9201C43.0011 41.1986 42.944 41.4743 42.8324 41.7294C42.7209 41.9846 42.5572 42.2137 42.352 42.402C42.1468 42.5902 41.9045 42.7336 41.6407 42.8228C41.3769 42.912 41.0973 42.9452 40.8199 42.9201C37.7428 42.5857 34.7869 41.5342 32.1899 39.8501C29.7738 38.3148 27.7253 36.2663 26.1899 33.8501C24.4999 31.2413 23.4482 28.2711 23.1199 25.1801C23.0949 24.9036 23.1278 24.6249 23.2164 24.3617C23.3051 24.0986 23.4475 23.8568 23.6347 23.6517C23.8219 23.4466 24.0497 23.2828 24.3037 23.1706C24.5577 23.0584 24.8323 23.0004 25.1099 23.0001H28.1099C28.5952 22.9953 29.0657 23.1672 29.4337 23.4836C29.8017 23.8001 30.042 24.2395 30.1099 24.7201C30.2366 25.6802 30.4714 26.6228 30.8099 27.5301C30.9445 27.888 30.9736 28.277 30.8938 28.651C30.8141 29.0249 30.6288 29.3682 30.3599 29.6401L29.0899 30.9101C30.5135 33.4136 32.5864 35.4865 35.0899 36.9101L36.3599 35.6401C36.6318 35.3712 36.9751 35.1859 37.3491 35.1062C37.723 35.0264 38.112 35.0556 38.4699 35.1901C39.3772 35.5286 40.3199 35.7635 41.2799 35.8901C41.7657 35.9586 42.2093 36.2033 42.5265 36.5776C42.8436 36.9519 43.0121 37.4297 42.9999 37.9201Z" fill="#BC3324"/>
</svg>
