<svg viewBox="0 0 65 65" fill="none" xmlns="http://www.w3.org/2000/svg">
<rect width="65" height="65" fill="#1F1E1E"/>
<path d="M37.48 31.4098C37.09 31.7998 36.44 31.7998 36.05 31.4098L31.58 26.9498L24.53 33.9898L23.87 33.3598C23.3082 32.7973 22.9927 32.0348 22.9927 31.2398C22.9927 30.4448 23.3082 29.6823 23.87 29.1198L28.11 24.8798C28.6725 24.318 29.435 24.0024 30.23 24.0024C31.025 24.0024 31.7875 24.318 32.35 24.8798L37.48 29.9998C37.87 30.3898 37.87 31.0198 37.48 31.4098ZM38.18 29.2898C38.96 30.0698 38.96 31.3398 38.18 32.1198C36.91 33.3898 35.57 32.3398 35.35 32.1198L31.59 28.3598L26.02 33.9298C25.9273 34.0223 25.8538 34.1322 25.8036 34.2532C25.7534 34.3742 25.7276 34.5038 25.7276 34.6348C25.7276 34.7658 25.7534 34.8955 25.8036 35.0164C25.8538 35.1374 25.9273 35.2473 26.02 35.3398C26.41 35.7298 27.04 35.7298 27.44 35.3398L32.06 30.7198L32.77 31.4298L28.15 36.0498C28.0573 36.1423 27.9838 36.2522 27.9336 36.3732C27.8834 36.4942 27.8576 36.6238 27.8576 36.7548C27.8576 36.8858 27.8834 37.0155 27.9336 37.1364C27.9838 37.2574 28.0573 37.3673 28.15 37.4598C28.54 37.8498 29.17 37.8498 29.57 37.4598L34.19 32.8398L34.9 33.5498L30.28 38.1698C30.1875 38.2624 30.114 38.3723 30.0639 38.4933C30.0138 38.6142 29.988 38.7439 29.988 38.8748C29.988 39.0057 30.0138 39.1354 30.0639 39.2563C30.114 39.3773 30.1875 39.4872 30.28 39.5798C30.3726 39.6724 30.4825 39.7458 30.6035 39.7959C30.7245 39.846 30.8541 39.8718 30.985 39.8718C31.116 39.8718 31.2456 39.846 31.3666 39.7959C31.4875 39.7458 31.5975 39.6724 31.69 39.5798L36.31 34.9598L37.02 35.6698L32.4 40.2898C32.3075 40.3824 32.234 40.4923 32.1839 40.6133C32.1338 40.7342 32.108 40.8639 32.108 40.9948C32.108 41.1257 32.1338 41.2554 32.1839 41.3763C32.234 41.4973 32.3075 41.6072 32.4 41.6998C32.587 41.8868 32.8406 41.9918 33.105 41.9918C33.236 41.9918 33.3656 41.966 33.4866 41.9159C33.6075 41.8658 33.7175 41.7924 33.81 41.6998L42.13 33.3598C42.6918 32.7973 43.0074 32.0348 43.0074 31.2398C43.0074 30.4448 42.6918 29.6823 42.13 29.1198L37.89 24.8798C37.3379 24.3282 36.5926 24.0135 35.8122 24.0023C35.0318 23.9911 34.2778 24.2843 33.71 24.8198L38.18 29.2898Z" fill="#BC3324"/>
</svg>
