<svg viewBox="0 0 65 66" fill="none" xmlns="http://www.w3.org/2000/svg">
<rect width="65" height="65" transform="translate(0 0.5)" fill="#1F1E1E"/>
<path d="M41.0001 29.5L35.0001 24.24C34.4501 23.7481 33.738 23.4761 33.0001 23.4761C32.2622 23.4761 31.5501 23.7481 31.0001 24.24L25.0001 29.5C24.6825 29.7841 24.429 30.1326 24.2566 30.5223C24.0841 30.9119 23.9967 31.3339 24.0001 31.76V40.5C24.0001 41.2957 24.3162 42.0587 24.8788 42.6213C25.4414 43.1839 26.2044 43.5 27.0001 43.5H39.0001C39.7957 43.5 40.5588 43.1839 41.1214 42.6213C41.684 42.0587 42.0001 41.2957 42.0001 40.5V31.75C42.0021 31.3256 41.9139 30.9055 41.7416 30.5177C41.5692 30.1298 41.3165 29.783 41.0001 29.5ZM35.0001 41.5H31.0001V36.5C31.0001 36.2348 31.1055 35.9804 31.293 35.7929C31.4805 35.6054 31.7349 35.5 32.0001 35.5H34.0001C34.2653 35.5 34.5197 35.6054 34.7072 35.7929C34.8947 35.9804 35.0001 36.2348 35.0001 36.5V41.5ZM40.0001 40.5C40.0001 40.7652 39.8947 41.0196 39.7072 41.2071C39.5197 41.3946 39.2653 41.5 39.0001 41.5H37.0001V36.5C37.0001 35.7044 36.684 34.9413 36.1214 34.3787C35.5588 33.8161 34.7957 33.5 34.0001 33.5H32.0001C31.2044 33.5 30.4414 33.8161 29.8788 34.3787C29.3162 34.9413 29.0001 35.7044 29.0001 36.5V41.5H27.0001C26.7349 41.5 26.4805 41.3946 26.293 41.2071C26.1055 41.0196 26.0001 40.7652 26.0001 40.5V31.75C26.0003 31.608 26.0307 31.4677 26.0893 31.3384C26.1479 31.2091 26.2334 31.0937 26.3401 31L32.3401 25.75C32.5226 25.5897 32.7572 25.5013 33.0001 25.5013C33.243 25.5013 33.4776 25.5897 33.6601 25.75L39.6601 31C39.7668 31.0937 39.8523 31.2091 39.9109 31.3384C39.9695 31.4677 39.9999 31.608 40.0001 31.75V40.5Z" fill="#BC3324"/>
<path d="M40.0001 40.5C40.0001 40.7652 39.8947 41.0196 39.7072 41.2071C39.5197 41.3946 39.2653 41.5 39.0001 41.5H37.0001V36.5C37.0001 35.7044 36.684 34.9413 36.1214 34.3787C35.5588 33.8161 34.7957 33.5 34.0001 33.5H32.0001C31.2044 33.5 30.4414 33.8161 29.8788 34.3787C29.3162 34.9413 29.0001 35.7044 29.0001 36.5V41.5H27.0001C26.7349 41.5 26.4805 41.3946 26.293 41.2071C26.1055 41.0196 26.0001 40.7652 26.0001 40.5V31.75C26.0003 31.608 26.0307 31.4677 26.0893 31.3384C26.1479 31.2091 26.2334 31.0937 26.3401 31L32.3401 25.75C32.5226 25.5897 32.7572 25.5013 33.0001 25.5013C33.243 25.5013 33.4776 25.5897 33.6601 25.75L39.6601 31C39.7668 31.0937 39.8523 31.2091 39.9109 31.3384C39.9695 31.4677 39.9999 31.608 40.0001 31.75V40.5Z" fill="#BC3324"/>
</svg>
