<svg viewBox="0 0 65 65" fill="none" xmlns="http://www.w3.org/2000/svg">
<rect width="65" height="65" fill="#1F1E1E"/>
<path fill-rule="evenodd" clip-rule="evenodd" d="M33 44C39.0751 44 44 39.0751 44 33C44 26.9249 39.0751 22 33 22C26.9249 22 22 26.9249 22 33C22 39.0751 26.9249 44 33 44ZM32 37.4C32 36.8477 32.4477 36.4 33 36.4H33.011C33.5633 36.4 34.011 36.8477 34.011 37.4C34.011 37.9523 33.5633 38.4 33.011 38.4H33C32.4477 38.4 32 37.9523 32 37.4ZM34 28.6C34 28.0477 33.5523 27.6 33 27.6C32.4477 27.6 32 28.0477 32 28.6V33C32 33.5523 32.4477 34 33 34C33.5523 34 34 33.5523 34 33V28.6Z" fill="#BC3324"/>
</svg>
