<svg viewBox="0 0 48 48" fill="none" xmlns="http://www.w3.org/2000/svg">
<!-- <circle cx="24" cy="24" r="24" fill="currentColor"/> -->
<path d="M24 19C22.6739 19 21.4021 19.5268 20.4645 20.4645C19.5268 21.4021 19 22.6739 19 24C19 25.3261 19.5268 26.5979 20.4645 27.5355C21.4021 28.4732 22.6739 29 24 29C25.3261 29 26.5979 28.4732 27.5355 27.5355C28.4732 26.5979 29 25.3261 29 24C29 22.6739 28.4732 21.4021 27.5355 20.4645C26.5979 19.5268 25.3261 19 24 19ZM24 27.2472C23.1385 27.2472 22.3123 26.905 21.7031 26.2958C21.094 25.6866 20.7517 24.8604 20.7517 23.9989C20.7517 23.1374 21.094 22.3112 21.7031 21.702C22.3123 21.0929 23.1385 20.7506 24 20.7506C24.8615 20.7506 25.6877 21.0929 26.2969 21.702C26.906 22.3112 27.2483 23.1374 27.2483 23.9989C27.2483 24.8604 26.906 25.6866 26.2969 26.2958C25.6877 26.905 24.8615 27.2472 24 27.2472Z" fill="white"/>
<path d="M29 20C29.5523 20 30 19.5523 30 19C30 18.4477 29.5523 18 29 18C28.4477 18 28 18.4477 28 19C28 19.5523 28.4477 20 29 20Z" fill="white"/>
<path d="M33.4702 17.4442C33.2131 16.7813 32.8202 16.1793 32.3167 15.6767C31.8131 15.1741 31.21 14.7821 30.546 14.5256C29.7689 14.2344 28.948 14.0769 28.1182 14.0599C27.0486 14.0133 26.7099 14 23.9978 14C21.2857 14 20.938 14 19.8774 14.0599C19.0482 14.076 18.2279 14.2335 17.4518 14.5256C16.7876 14.7818 16.1843 15.1737 15.6807 15.6763C15.1771 16.179 14.7843 16.7811 14.5275 17.4442C14.2358 18.22 14.0784 19.0397 14.0622 19.8683C14.0144 20.935 14 21.2732 14 23.9823C14 26.6902 14 27.035 14.0622 28.0963C14.0789 28.9257 14.2355 29.7441 14.5275 30.5214C14.7851 31.1843 15.1782 31.7862 15.682 32.2887C16.1857 32.7913 16.7888 33.1834 17.4529 33.44C18.2275 33.743 19.0482 33.9117 19.8796 33.939C20.9491 33.9856 21.2879 34 24 34C26.7121 34 27.0598 34 28.1204 33.939C28.9501 33.9222 29.771 33.7651 30.5482 33.4744C31.2121 33.2173 31.815 32.8249 32.3185 32.3222C32.822 31.8195 33.215 31.2175 33.4725 30.5547C33.7645 29.7784 33.9211 28.9601 33.9378 28.1306C33.9856 27.0639 34 26.7257 34 24.0166C34 21.3076 34 20.9639 33.9378 19.9026C33.9249 19.0624 33.7667 18.2307 33.4702 17.4442ZM32.1175 28.0142C32.1103 28.6533 31.9935 29.2864 31.7721 29.886C31.6053 30.3172 31.35 30.7088 31.0225 31.0356C30.695 31.3623 30.3027 31.617 29.8707 31.7833C29.2768 32.0034 28.6494 32.12 28.016 32.1282C26.9609 32.177 26.6633 32.1892 23.9578 32.1892C21.2501 32.1892 20.9736 32.1892 19.8985 32.1282C19.2654 32.1205 18.6383 32.0038 18.0449 31.7833C17.6114 31.6181 17.2175 31.3638 16.8886 31.037C16.5597 30.7102 16.3032 30.318 16.1357 29.886C15.9174 29.2928 15.8007 28.6672 15.7903 28.0353C15.7426 26.9818 15.7315 26.6846 15.7315 23.9834C15.7315 21.281 15.7315 21.0049 15.7903 19.9304C15.7975 19.2917 15.9143 18.6589 16.1357 18.0597C16.4745 17.1847 17.1686 16.4961 18.0449 16.1612C18.6386 15.9418 19.2655 15.8252 19.8985 15.8164C20.9547 15.7687 21.2512 15.7554 23.9578 15.7554C26.6644 15.7554 26.942 15.7554 28.016 15.8164C28.6495 15.824 29.2769 15.9406 29.8707 16.1612C30.3027 16.3279 30.695 16.5828 31.0224 16.9098C31.3498 17.2367 31.6052 17.6284 31.7721 18.0597C31.9904 18.6529 32.1072 19.2785 32.1175 19.9104C32.1653 20.965 32.1775 21.261 32.1775 23.9634C32.1775 26.6647 32.1775 26.9552 32.1297 28.0153H32.1175V28.0142Z" fill="white"/>
</svg>
