<svg viewBox="0 0 65 66" fill="none" xmlns="http://www.w3.org/2000/svg">
<rect width="65" height="65" transform="translate(0 0.5)" fill="#1F1E1E"/>
<path d="M42.163 30.2716C42.3156 30.3905 42.4305 30.5512 42.4936 30.7341C42.5423 30.917 42.538 31.1099 42.4814 31.2905C42.4247 31.471 42.318 31.6318 42.1736 31.7541L38.0436 35.7541L39.0436 41.4341C39.0793 41.6216 39.0606 41.8154 38.9898 41.9926C38.9189 42.1698 38.7988 42.323 38.6436 42.4341C38.472 42.5583 38.2655 42.6249 38.0536 42.6241C37.8925 42.6246 37.734 42.5833 37.5936 42.5041L32.4936 39.8241L27.3736 42.4941C27.2094 42.5812 27.0242 42.6208 26.8387 42.6084C26.6532 42.596 26.4748 42.5322 26.3236 42.4241C26.1685 42.313 26.0484 42.1598 25.9775 41.9826C25.9066 41.8054 25.8879 41.6116 25.9236 41.4241L26.9236 35.7441L22.7936 31.7441C22.6651 31.6158 22.5739 31.455 22.5299 31.2788C22.4858 31.1026 22.4906 30.9178 22.5436 30.7441C22.6016 30.5664 22.7082 30.4085 22.8514 30.2883C22.9946 30.1681 23.1686 30.0904 23.3536 30.0641L29.0436 29.2241L31.5936 24.0641C31.6755 23.895 31.8034 23.7525 31.9625 23.6527C32.1217 23.5529 32.3058 23.5 32.4936 23.5C32.6815 23.5 32.8655 23.5529 33.0247 23.6527C33.1839 23.7525 33.3117 23.895 33.3936 24.0641L35.9436 29.2341L41.6336 30.0641C41.8264 30.0806 42.0103 30.1527 42.163 30.2716Z" fill="#BC3324"/>
</svg>
