<svg viewBox="0 0 48 48" fill="none" xmlns="http://www.w3.org/2000/svg">
<!-- <circle cx="24" cy="24" r="24" fill="currentColor"/> -->
<path d="M17.7109 14C16.7279 14.0038 15.7862 14.396 15.0911 15.0911C14.396 15.7862 14.0038 16.7279 14 17.7109V30.2891C14.0038 31.2721 14.396 32.2138 15.0911 32.9089C15.7862 33.604 16.7279 33.9962 17.7109 34H30.2891C31.2721 33.9962 32.2138 33.604 32.9089 32.9089C33.604 32.2138 33.9962 31.2721 34 30.2891V17.7109C33.9962 16.7279 33.604 15.7862 32.9089 15.0911C32.2138 14.396 31.2721 14.0038 30.2891 14H17.7109ZM17.7109 15.8182H30.2891C31.3436 15.8182 32.1818 16.6564 32.1818 17.7109V30.2891C32.1818 31.3436 31.3436 32.1818 30.2891 32.1818H17.7109C17.4619 32.1834 17.2151 32.1355 16.9847 32.0409C16.7544 31.9464 16.5451 31.807 16.3691 31.631C16.193 31.4549 16.0536 31.2456 15.9591 31.0153C15.8645 30.7849 15.8166 30.5381 15.8182 30.2891V17.7109C15.8182 16.6564 16.6564 15.8182 17.7109 15.8182Z" fill="white"/>
<path fill-rule="evenodd" clip-rule="evenodd" d="M29.7248 21.4063C29.8078 21.1723 29.7248 21 29.3273 21H28.0148C27.6808 21 27.5268 21.1487 27.4433 21.3129C27.4433 21.3129 26.7758 22.6826 25.8303 23.5723C25.5243 23.8303 25.3853 23.9121 25.2183 23.9121C25.1349 23.9121 25.0094 23.8303 25.0094 23.5959V21.4063C25.0094 21.1251 24.9174 21 24.6394 21H22.5754C22.3669 21 22.2414 21.1303 22.2414 21.2541C22.2414 21.5203 22.7144 21.582 22.7629 22.3311V23.9589C22.7629 24.3159 22.6864 24.3806 22.5194 24.3806C22.0744 24.3806 20.9919 23.0044 20.3495 21.4299C20.225 21.1234 20.099 21 19.7635 21H18.45C18.075 21 18 21.1487 18 21.3129C18 21.6051 18.445 23.0571 20.0725 24.9776C21.1574 26.289 22.6849 27 24.0764 27C24.9109 27 25.0139 26.8423 25.0139 26.5701V25.5789C25.0139 25.263 25.0929 25.2 25.3573 25.2C25.5523 25.2 25.8858 25.2823 26.6648 25.9144C27.5548 26.664 27.7013 27 28.2023 27H29.5148C29.8898 27 30.0777 26.8423 29.9698 26.5303C29.8508 26.22 29.4258 25.7696 28.8623 25.2351C28.5563 24.9309 28.0973 24.603 27.9578 24.4389C27.7633 24.2284 27.8188 24.1346 27.9578 23.9473C27.9578 23.9473 29.5578 22.0504 29.7243 21.4063H29.7248Z" fill="white"/>
</svg>
